<?xml version="1.0" encoding="UTF-8" standalone="no"?>
<svg
   version="1.1"
   width="140.0"
   height="187.3"
   id="svg737"
   sodipodi:docname="cupspm.svg"
   inkscape:version="1.4 (e7c3feb1, 2024-10-09)"
   inkscape:export-filename="cupspm.png"
   inkscape:export-xdpi="960"
   inkscape:export-ydpi="960"
   xmlns:inkscape="http://www.inkscape.org/namespaces/inkscape"
   xmlns:sodipodi="http://sodipodi.sourceforge.net/DTD/sodipodi-0.dtd"
   xmlns="http://www.w3.org/2000/svg"
   xmlns:svg="http://www.w3.org/2000/svg"
   xmlns:rdf="http://www.w3.org/1999/02/22-rdf-syntax-ns#"
   xmlns:dc="http://purl.org/dc/elements/1.1/">
  <defs
     id="defs741" />
  <sodipodi:namedview
     id="namedview739"
     pagecolor="#ffffff"
     bordercolor="#666666"
     borderopacity="1.0"
     inkscape:showpageshadow="2"
     inkscape:pageopacity="0.0"
     inkscape:pagecheckerboard="0"
     inkscape:deskcolor="#d1d1d1"
     showgrid="false"
     inkscape:zoom="2.0069868"
     inkscape:cx="57.798088"
     inkscape:cy="120.08051"
     inkscape:window-width="1312"
     inkscape:window-height="811"
     inkscape:window-x="0"
     inkscape:window-y="38"
     inkscape:window-maximized="0"
     inkscape:current-layer="g735" />
  <metadata
     id="metadata652">
    <rdf:RDF>
      <rdf:Description
         rdf:about="http://likethought.com/opacity/">
        <dc:title>New Icon</dc:title>
        <dc:creator>Michael Sweet</dc:creator>
        <dc:rights>Copyright 2017 Michael Sweet</dc:rights>
        <dc:description />
        <dc:format>image/svg+xml</dc:format>
        <dc:language>en</dc:language>
      </rdf:Description>
    </rdf:RDF>
  </metadata>
  <g
     id="g665">
    <title
       id="title654">Background</title>
    <defs
       id="defs661">
      <linearGradient
         id="Gradient600002045500"
         gradientUnits="userSpaceOnUse"
         x1="70.0"
         y1="187.3"
         x2="70.0"
         y2="0.0">
        <stop
           offset="0%"
           stop-color="rgb(2.46%, 39.92%, 82.68%)"
           id="stop656" />
        <stop
           offset="100%"
           stop-color="rgb(0.74%, 48.2%, 99.84%)"
           id="stop658" />
      </linearGradient>
    </defs>
    <rect
       x="0.0"
       y="0.0"
       width="140.0"
       height="187.3"
       fill="url(#Gradient600002045500)"
       stroke="none"
       id="rect663" />
  </g>
  <g
     id="g723">
    <title
       id="title667">Mascot</title>
    <path
       d="M 24.693 58.123 L 21.993 85.323 L 34.42 92.801 L 37.493 61.023 L 24.693 56.023"
       stroke="rgb(0%, 0%, 0%)"
       stroke-width="1.0"
       stroke-linecap="square"
       stroke-linejoin="miter"
       fill="none"
       id="path669" />
    <path
       d="M 19.209 92.637 L 32.693 100.323 L 71.593 91.823 L 71.593 93.723"
       stroke="rgb(0%, 0%, 0%)"
       stroke-width="1.0"
       stroke-linecap="square"
       stroke-linejoin="miter"
       fill="none"
       id="path671" />
    <path
       d="M 34.834 93.008 L 67.493 90.223 L 70.793 61.023 L 37.493 61.023"
       stroke="rgb(0%, 0%, 0%)"
       stroke-width="1.0"
       stroke-linecap="square"
       stroke-linejoin="miter"
       fill="none"
       id="path673" />
    <path
       d="M 70.793 61.023 L 48.177 56.463 L 27.687 55.815"
       stroke="rgb(0%, 0%, 0%)"
       stroke-width="1.0"
       stroke-linecap="square"
       stroke-linejoin="miter"
       fill="none"
       id="path675" />
    <path
       d="M 17.5 104.215 L 32.976 114.739 L 67.211 106.179"
       stroke="rgb(0%, 0%, 0%)"
       stroke-width="1.0"
       stroke-linecap="square"
       stroke-linejoin="miter"
       fill="none"
       id="path677" />
    <path
       d="M 25.608 107.45 L 39.867 107.45"
       stroke="rgb(0%, 0%, 0%)"
       stroke-width="1.0"
       stroke-linecap="square"
       stroke-linejoin="miter"
       fill="none"
       transform="translate(32.738, 107.45) rotate(88.838) translate(-32.738, -107.45)"
       id="path679" />
    <path
       d="M 40.808 63.763 L 38.147 89.406 L 64.569 87.127 L 66.914 63.675 L 40.808 63.763 Z"
       fill="rgb(100%, 100%, 100%)"
       fill-opacity="0.5"
       stroke="none"
       id="path681" />
    <path
       d="M 40.808 63.763 L 38.147 89.406 L 64.569 87.127 L 66.914 63.675 L 40.808 63.763 Z"
       stroke="rgb(0%, 0%, 0%)"
       stroke-width="1.0"
       stroke-linecap="square"
       stroke-linejoin="miter"
       fill="none"
       id="path683" />
    <path
       d="M 43.033 71.622 L 49.817 71.622"
       stroke="rgb(0%, 0%, 0%)"
       stroke-width="1.0"
       stroke-linecap="square"
       stroke-linejoin="miter"
       fill="none"
       transform="translate(46.425, 71.622) rotate(-22.558) translate(-46.425, -71.622)"
       id="path685" />
    <path
       d="M 56.709 72.056 L 62.702 72.056"
       stroke="rgb(0%, 0%, 0%)"
       stroke-width="1.0"
       stroke-linecap="square"
       stroke-linejoin="miter"
       fill="none"
       transform="translate(59.706, 72.056) rotate(20.17) translate(-59.706, -72.056)"
       id="path687" />
    <path
       d="M 43.932 82.141 L 45.963 84.267 L 47.762 85.51 L 49.391 86.349 L 50.775 86.494 L 53.517 86.633 L 55.168 86.379 L 56.572 85.871 L 58.323 84.726 L 59.838 83.384 L 61.318 81.389"
       stroke="rgb(0%, 0%, 0%)"
       stroke-width="1.0"
       stroke-linecap="square"
       stroke-linejoin="miter"
       fill="none"
       id="path689" />
    <path
       d="M 43.022 103.902 L 44.067 103.651 C 44.008 103.247 43.884 102.908 43.693 102.635 C 43.502 102.362 43.264 102.153 42.978 102.009 C 42.692 101.865 42.366 101.782 42.0 101.76 C 41.632 101.738 41.244 101.776 40.833 101.875 C 40.232 102.019 39.698 102.256 39.233 102.584 C 38.767 102.912 38.378 103.3 38.067 103.749 C 37.755 104.198 37.518 104.693 37.357 105.234 C 37.196 105.775 37.115 106.332 37.115 106.904 C 37.115 107.476 37.19 107.993 37.341 108.456 C 37.491 108.918 37.716 109.297 38.017 109.591 C 38.318 109.886 38.695 110.083 39.15 110.183 C 39.605 110.282 40.136 110.259 40.745 110.113 C 41.75 109.872 42.542 109.407 43.121 108.718 C 43.7 108.029 44.041 107.177 44.144 106.162 L 43.099 106.413 C 43.077 106.741 43.011 107.058 42.901 107.363 C 42.791 107.668 42.639 107.944 42.445 108.193 C 42.25 108.441 42.019 108.654 41.752 108.832 C 41.484 109.01 41.178 109.14 40.833 109.223 C 40.364 109.336 39.96 109.345 39.623 109.25 C 39.286 109.155 39.009 108.985 38.793 108.739 C 38.576 108.494 38.417 108.184 38.314 107.809 C 38.211 107.434 38.16 107.023 38.16 106.576 C 38.16 106.165 38.211 105.757 38.314 105.351 C 38.417 104.945 38.576 104.567 38.793 104.218 C 39.009 103.87 39.284 103.567 39.618 103.311 C 39.951 103.055 40.353 102.87 40.822 102.758 C 41.372 102.626 41.847 102.651 42.247 102.834 C 42.646 103.016 42.905 103.372 43.022 103.902 L 43.022 103.902 Z M 51.712 104.466 L 51.712 99.45 L 50.667 99.701 L 50.667 104.717 C 50.667 105.421 50.493 105.996 50.145 106.443 C 49.796 106.89 49.288 107.193 48.621 107.353 C 47.917 107.522 47.378 107.47 47.004 107.197 C 46.63 106.924 46.443 106.435 46.443 105.731 L 46.443 100.715 L 45.398 100.966 L 45.398 105.982 C 45.398 107.031 45.682 107.727 46.251 108.071 C 46.819 108.415 47.609 108.465 48.621 108.222 C 49.611 107.985 50.374 107.55 50.909 106.92 C 51.444 106.289 51.712 105.471 51.712 104.466 L 51.712 104.466 Z M 54.429 102.56 L 54.429 99.678 L 56.475 99.187 C 57.069 99.044 57.504 99.063 57.779 99.242 C 58.054 99.422 58.191 99.746 58.191 100.216 C 58.191 100.685 58.054 101.077 57.779 101.393 C 57.504 101.708 57.069 101.933 56.475 102.069 L 54.429 102.56 Z M 53.384 99.049 L 53.384 106.903 L 54.429 106.652 L 54.429 103.44 L 56.827 102.864 C 57.619 102.681 58.219 102.336 58.626 101.827 C 59.033 101.319 59.236 100.698 59.236 99.965 C 59.236 99.232 59.033 98.71 58.626 98.401 C 58.219 98.092 57.619 98.032 56.827 98.222 L 53.384 99.049 Z M 65.055 98.546 L 66.045 98.308 C 66.03 97.879 65.948 97.527 65.798 97.251 C 65.647 96.976 65.442 96.766 65.182 96.624 C 64.921 96.481 64.619 96.403 64.274 96.39 C 63.929 96.378 63.555 96.42 63.152 96.517 C 62.793 96.603 62.443 96.733 62.102 96.906 C 61.761 97.08 61.456 97.292 61.189 97.544 C 60.921 97.795 60.706 98.085 60.545 98.413 C 60.384 98.742 60.303 99.104 60.303 99.5 C 60.303 99.859 60.375 100.141 60.518 100.345 C 60.661 100.549 60.851 100.697 61.09 100.79 C 61.328 100.884 61.597 100.94 61.898 100.959 C 62.199 100.979 62.505 100.986 62.817 100.981 C 63.128 100.976 63.434 100.97 63.735 100.964 C 64.036 100.958 64.305 100.979 64.544 101.028 C 64.782 101.077 64.973 101.169 65.116 101.303 C 65.259 101.438 65.33 101.641 65.33 101.912 C 65.33 102.198 65.271 102.447 65.154 102.658 C 65.037 102.87 64.883 103.051 64.692 103.204 C 64.501 103.356 64.287 103.482 64.049 103.584 C 63.81 103.685 63.574 103.764 63.339 103.82 C 63.046 103.89 62.76 103.922 62.481 103.916 C 62.202 103.909 61.959 103.854 61.75 103.75 C 61.541 103.647 61.372 103.491 61.244 103.283 C 61.115 103.076 61.051 102.807 61.051 102.477 L 60.061 102.715 C 60.061 103.192 60.147 103.583 60.32 103.89 C 60.492 104.197 60.727 104.427 61.024 104.579 C 61.321 104.732 61.665 104.816 62.058 104.832 C 62.45 104.847 62.866 104.802 63.306 104.697 C 63.665 104.611 64.027 104.482 64.39 104.31 C 64.753 104.139 65.081 103.924 65.374 103.667 C 65.667 103.409 65.908 103.11 66.095 102.768 C 66.282 102.426 66.375 102.046 66.375 101.628 C 66.375 101.239 66.304 100.934 66.161 100.711 C 66.018 100.489 65.827 100.322 65.589 100.211 C 65.35 100.099 65.081 100.03 64.78 100.003 C 64.479 99.977 64.173 99.964 63.862 99.965 C 63.55 99.967 63.244 99.973 62.943 99.982 C 62.642 99.992 62.373 99.978 62.135 99.94 C 61.896 99.902 61.706 99.825 61.563 99.709 C 61.42 99.593 61.348 99.414 61.348 99.172 C 61.348 98.915 61.398 98.689 61.497 98.493 C 61.596 98.297 61.728 98.127 61.893 97.985 C 62.058 97.843 62.246 97.724 62.459 97.629 C 62.672 97.534 62.888 97.46 63.108 97.407 C 63.651 97.277 64.096 97.297 64.445 97.466 C 64.793 97.635 64.996 97.995 65.055 98.546 L 65.055 98.546 Z M 66.782 103.686"
       fill="rgb(0%, 0%, 0%)"
       stroke="none"
       id="path691" />
    <path
       d="M 86.415 94.019 L 95.893 87.518 L 80.252 94.324 L 99.056 99.139 L 113.478 91.05"
       stroke="rgb(0%, 0%, 0%)"
       stroke-width="1.0"
       stroke-linecap="square"
       stroke-linejoin="miter"
       fill="none"
       id="path693" />
    <path
       d="M 93.777 86.163 L 67.871 95.632 L 68.018 121.971 L 100.942 131.8 L 100.793 103.926 L 69.783 96.609"
       stroke="rgb(0%, 0%, 0%)"
       stroke-width="1.0"
       stroke-linecap="square"
       stroke-linejoin="miter"
       fill="none"
       id="path695" />
    <path
       d="M 88.789 121.741 L 67.948 115.866"
       stroke="rgb(0%, 0%, 0%)"
       stroke-width="1.0"
       stroke-linecap="square"
       stroke-linejoin="miter"
       fill="none"
       id="path697" />
    <path
       d="M 102.235 103.194 L 122.158 90.984 L 122.328 115.112 L 102.566 131.051"
       stroke="rgb(0%, 0%, 0%)"
       stroke-width="1.0"
       stroke-linecap="square"
       stroke-linejoin="miter"
       fill="none"
       id="path699" />
    <path
       d="M 91.519 103.33 L 91.349 110.643 L 91.016 128.797"
       stroke="rgb(0%, 0%, 0%)"
       stroke-width="1.0"
       stroke-linecap="square"
       stroke-linejoin="miter"
       fill="none"
       id="path701" />
    <path
       d="M 100.548 112.859 L 91.57 110.602"
       stroke="rgb(0%, 0%, 0%)"
       stroke-width="1.0"
       stroke-linecap="square"
       stroke-linejoin="miter"
       fill="none"
       id="path703" />
    <path
       d="M 93.257 104.742 L 98.152 105.901 L 98.163 108.305 L 93.278 106.997 L 93.257 104.742 Z"
       fill="rgb(31.8%, 31.8%, 31.8%)"
       stroke="none"
       id="path705" />
    <path
       d="M 93.257 104.742 L 98.152 105.901 L 98.163 108.305 L 93.278 106.997 L 93.257 104.742 Z"
       stroke="rgb(0%, 0%, 0%)"
       stroke-width="1.0"
       stroke-linecap="square"
       stroke-linejoin="miter"
       fill="none"
       id="path707" />
    <path
       d="M 99.073 86.321 L 104.039 84.1 L 118.499 86.902 L 112.892 89.329 L 98.426 98.844 L 86.075 95.723 L 99.073 86.321 Z"
       fill="rgb(100%, 100%, 100%)"
       fill-opacity="0.5"
       stroke="none"
       id="path709" />
    <path
       d="M 99.073 86.321 L 104.039 84.1 L 118.499 86.902 L 112.892 89.329 L 98.426 98.844 L 86.075 95.723 L 99.073 86.321 Z"
       stroke="rgb(0%, 0%, 0%)"
       stroke-width="1.0"
       stroke-linecap="square"
       stroke-linejoin="miter"
       fill="none"
       id="path711" />
    <path
       d="M 103.148 86.472 L 109.898 86.472"
       stroke="rgb(0%, 0%, 0%)"
       stroke-width="1.0"
       stroke-linecap="square"
       stroke-linejoin="miter"
       fill="none"
       transform="translate(106.523, 86.472) rotate(9.361) translate(-106.523, -86.472)"
       id="path713" />
    <path
       d="M 99.741 88.152 L 107.43 88.152"
       stroke="rgb(0%, 0%, 0%)"
       stroke-width="1.0"
       stroke-linecap="square"
       stroke-linejoin="miter"
       fill="none"
       transform="translate(103.585, 88.152) rotate(9.423) translate(-103.585, -88.152)"
       id="path715" />
    <path
       d="M 98.037 89.982 L 105.883 89.982"
       stroke="rgb(0%, 0%, 0%)"
       stroke-width="1.0"
       stroke-linecap="square"
       stroke-linejoin="miter"
       fill="none"
       transform="translate(101.96, 89.982) rotate(9.679) translate(-101.96, -89.982)"
       id="path717" />
    <path
       d="M 95.797 91.69 L 103.718 91.69"
       stroke="rgb(0%, 0%, 0%)"
       stroke-width="1.0"
       stroke-linecap="square"
       stroke-linejoin="miter"
       fill="none"
       transform="translate(99.757, 91.69) rotate(12.653) translate(-99.757, -91.69)"
       id="path719" />
    <path
       d="M 92.965 93.76 L 99.963 93.76"
       stroke="rgb(0%, 0%, 0%)"
       stroke-width="1.0"
       stroke-linecap="square"
       stroke-linejoin="miter"
       fill="none"
       transform="translate(96.464, 93.76) rotate(15.542) translate(-96.464, -93.76)"
       id="path721" />
  </g>
  <g
     id="g735">
    <title
       id="title725">Text</title>
    <text
       x="70"
       text-anchor="middle"
       y="153.3"
       id="text729"
       style="-inkscape-font-specification:'Helvetica Neue, Bold';font-family:'Helvetica Neue';font-weight:bold;font-style:normal;font-stretch:normal;font-variant:normal;font-size:17.0079px;font-variant-ligatures:normal;font-variant-caps:normal;font-variant-numeric:normal;font-variant-east-asian:normal;text-anchor:middle"><tspan
         sodipodi:role="line"
         id="tspan900"
         x="70"
         y="153.3"><tspan
           fill="#ffffff"
           font-family="HelveticaNeue-Bold"
           font-size="17px"
           id="tspan727"
           style="-inkscape-font-specification:'Helvetica Neue, Bold';font-family:'Helvetica Neue';font-weight:bold;font-style:normal;font-stretch:normal;font-variant:normal;font-size:17.00787402px;font-variant-ligatures:normal;font-variant-caps:normal;font-variant-numeric:normal;font-variant-east-asian:normal">Programming</tspan></tspan><tspan
         sodipodi:role="line"
         id="tspan902"
         x="70"
         y="174.55"><tspan
           fill="#ffffff"
           font-family="HelveticaNeue-Bold"
           font-size="17px"
           id="tspan904"
           style="-inkscape-font-specification:'Helvetica Neue, Bold';font-family:'Helvetica Neue';font-weight:bold;font-style:normal;font-stretch:normal;font-variant:normal;font-size:17.00787402px;font-variant-ligatures:normal;font-variant-caps:normal;font-variant-numeric:normal;font-variant-east-asian:normal">Manual</tspan></tspan></text>
    <text
       x="70"
       text-anchor="middle"
       y="46.934956"
       id="text733"
       style="-inkscape-font-specification:'Helvetica Neue, Bold';font-family:'Helvetica Neue';font-weight:bold;font-style:normal;font-stretch:normal;font-variant:normal;font-size:39.685px;font-variant-ligatures:normal;font-variant-caps:normal;font-variant-numeric:normal;font-variant-east-asian:normal;text-anchor:middle"><tspan
         fill="#ffffff"
         font-family="HelveticaNeue-Bold"
         font-size="40px"
         id="tspan731"
         style="-inkscape-font-specification:'Helvetica Neue, Bold';font-family:'Helvetica Neue';font-weight:bold;font-style:normal;font-stretch:normal;font-variant:normal;font-size:39.68503937px;font-variant-ligatures:normal;font-variant-caps:normal;font-variant-numeric:normal;font-variant-east-asian:normal">CUPS</tspan></text>
  </g>
</svg>
