<?xml version="1.0" standalone="no"?>
<!DOCTYPE svg PUBLIC "-//W3C//DTD SVG 1.1//EN" "http://www.w3.org/Graphics/SVG/1.1/DTD/svg11.dtd">
<svg xmlns="http://www.w3.org/2000/svg" version="1.1" width="128.0" height="128.0">

	<metadata>
		<rdf:RDF xmlns:rdf = "http://www.w3.org/1999/02/22-rdf-syntax-ns#" xmlns:rdfs = "http://www.w3.org/2000/01/rdf-schema#" xmlns:dc = "http://purl.org/dc/elements/1.1/">
			<rdf:Description rdf:about="http://likethought.com/opacity/">
				<dc:title>New Image</dc:title>
				<dc:creator>Michael Sweet</dc:creator>
				<dc:rights>Copyright 2010 Apple Inc.</dc:rights>
				<dc:description></dc:description>
				<dc:format>image/svg+xml</dc:format>
				<dc:language>en</dc:language>
			</rdf:Description>
		</rdf:RDF>
	</metadata>
	<g>
		<title>Background</title>
		<rect x="0.0" y="0.0" width="128.0" height="128.0" rx="12.0" ry="12.0" fill="rgb(100%, 100%, 100%)" stroke="none" />
		<text x="64.0" text-anchor="middle" y="29.0">
			<tspan fill="rgb(0%, 0%, 0%)" font-family="OpenSans" font-size="17.0">ippeveprinter</tspan>
		</text>
	</g>

	<g>
		<title>Printer</title>
		<g>
			<title>Printer</title>
			<path d="M 47.003 63.498 L 119.003 63.498 C 119.003 77.665 119.006 91.832 119.003 105.998 C 119.002 110.42 115.339 113.887 111.003 113.998 C 83.003 113.998 55.003 114.002 27.003 113.998 C 22.664 113.998 19.004 110.337 19.003 105.998 C 19.0 89.998 19.0 73.998 19.003 57.998 C 19.003 55.226 20.506 52.605 22.867 51.164 C 28.62 47.654 46.837 49.998 47.003 49.998 L 47.003 63.498 Z" fill="rgb(0%, 0%, 0%)" stroke="none" />
			<path d="M 36.0 68.5 L 108.0 68.5 C 108.0 82.667 108.003 96.833 108.0 111.0 C 107.999 115.422 104.337 118.889 100.0 119.0 C 72.0 119.0 44.0 119.003 16.0 119.0 C 11.661 119.0 8.0 115.339 8.0 111.0 C 7.997 95.0 7.997 79.0 8.0 63.0 C 8.0 60.228 9.503 57.606 11.865 56.165 C 17.617 52.655 35.834 55.0 36.0 55.0 L 36.0 68.5 Z" fill="rgb(24.83%, 24.83%, 24.83%)" stroke="none" />
			<defs>
				<linearGradient id="Gradient60000348c0e0" gradientUnits="userSpaceOnUse" x1="127.0" y1="119.0" x2="110.0" y2="63.0">
					<stop offset="100.0%" stop-color="rgb(36.45%, 36.45%, 36.45%)" />
					<stop offset="27.762%" stop-color="rgb(29.14%, 29.14%, 29.14%)" />
					<stop offset="0.0%" stop-color="rgb(0.83%, 0.83%, 0.83%)" />
				</linearGradient>
			</defs>
			<path d="M 101.0 119.0 L 114.0 114.0 L 119.0 109.0 L 119.0 63.0 L 108.0 69.0 L 108.0 112.0 L 101.0 119.0 Z" fill="url(#Gradient60000348c0e0)" stroke="none" />
			<defs>
				<linearGradient id="Gradient6000034b02a0" gradientUnits="userSpaceOnUse" x1="77.0" y1="69.0" x2="77.0" y2="63.0">
					<stop offset="100.0%" stop-color="rgb(40.31%, 40.31%, 40.31%)" />
					<stop offset="47.991%" stop-color="rgb(26.36%, 26.36%, 26.36%)" />
					<stop offset="0.0%" stop-color="rgb(36.41%, 36.41%, 36.41%)" />
				</linearGradient>
			</defs>
			<path d="M 35.0 69.0 L 108.0 69.0 L 119.0 63.0 L 48.0 63.0 L 35.0 69.0 Z" fill="url(#Gradient6000034b02a0)" stroke="none" />
			<defs>
				<linearGradient id="Gradient6000034a73a0" gradientUnits="userSpaceOnUse" x1="41.5" y1="69.0" x2="41.5" y2="50.0">
					<stop offset="0%" stop-color="rgb(35.14%, 35.14%, 35.14%)" />
					<stop offset="100%" stop-color="rgb(40.32%, 40.32%, 40.32%)" />
				</linearGradient>
			</defs>
			<path d="M 47.0 63.0 L 36.0 69.0 L 36.0 56.0 L 47.0 50.0 L 47.0 63.0 Z" fill="url(#Gradient6000034a73a0)" stroke="none" />
			<defs>
				<linearGradient id="Gradient6000034a7c60" gradientUnits="userSpaceOnUse" x1="30.0" y1="56.0" x2="30.0" y2="49.0">
					<stop offset="0%" stop-color="rgb(41.69%, 41.69%, 41.69%)" />
					<stop offset="100%" stop-color="rgb(33.5%, 33.5%, 33.5%)" />
				</linearGradient>
			</defs>
			<path d="M 13.0 56.0 L 28.0 49.0 L 47.0 50.0 L 35.0 56.0 L 13.0 56.0 Z" fill="url(#Gradient6000034a7c60)" stroke="none" />
			<defs>
				<linearGradient id="Gradient6000034988c0" gradientUnits="userSpaceOnUse" x1="58.0" y1="65.5" x2="58.0" y2="58.5">
					<stop offset="0%" stop-color="rgb(30.22%, 30.22%, 30.22%)" />
					<stop offset="100%" stop-color="rgb(7.47%, 7.47%, 7.47%)" />
				</linearGradient>
			</defs>
			<path d="M 37.5 65.5 L 70.5 62.5 L 78.5 58.5 L 46.5 61.5 L 37.5 65.5 Z" fill="url(#Gradient6000034988c0)" stroke="none" />
			<path d="M 37.5 65.5 L 70.5 62.5 L 78.5 58.5 L 46.5 61.5 L 37.5 65.5 Z" stroke="rgb(0%, 0%, 0%)" stroke-width="1.0" stroke-linecap="square" stroke-linejoin="miter" fill="none" />
			<defs>
				<linearGradient id="Gradient6000034b6a00" gradientUnits="userSpaceOnUse" x1="43.058" y1="62.699" x2="39.85" y2="57.143">
					<stop offset="0%" stop-color="rgb(4.03%, 4.03%, 4.03%)" />
					<stop offset="100%" stop-color="rgb(27.94%, 27.94%, 27.94%)" />
				</linearGradient>
			</defs>
			<path d="M 37.5 58.5 L 37.0 66.0 L 46.0 61.0 L 46.0 54.0 L 37.5 58.5 Z" fill="url(#Gradient6000034b6a00)" stroke="none" />
			<path d="M 9.0 100.0 L 108.0 100.0" stroke="rgb(22.63%, 22.63%, 22.63%)" stroke-width="1.0" stroke-linecap="square" stroke-linejoin="miter" fill="none" />
			<defs>
				<linearGradient id="Gradient6000034d7f00" gradientUnits="userSpaceOnUse" x1="58.5" y1="86.0" x2="58.5" y2="73.0">
					<stop offset="0%" stop-color="rgb(0%, 0%, 0%)" stop-opacity="0.2" />
					<stop offset="100%" stop-color="rgb(0%, 0%, 0%)" stop-opacity="0.19" />
				</linearGradient>
			</defs>
			<rect x="15.0" y="73.0" width="87.0" height="13.0" rx="4.0" ry="4.0" fill="url(#Gradient6000034d7f00)" stroke="none" transform="translate(58.5, 79.5) skewX(11.25) translate(-58.5, -79.5)" />
			<defs>
				<linearGradient id="Gradient6000034d7e20" gradientUnits="userSpaceOnUse" x1="57.278" y1="83.751" x2="57.278" y2="72.248">
					<stop offset="0%" stop-color="rgb(0%, 0%, 0%)" stop-opacity="0.5" />
					<stop offset="100%" stop-color="rgb(0%, 0%, 0%)" stop-opacity="0.75" />
				</linearGradient>
			</defs>
			<path d="M 99.161 79.748 C 98.159 81.96 95.957 83.625 93.504 83.748 C 67.297 83.748 41.089 83.755 14.882 83.748 C 8.687 83.746 15.519 72.552 15.645 72.248 L 102.268 72.248 L 99.161 79.748 Z" fill="url(#Gradient6000034d7e20)" stroke="none" />
			<defs>
				<linearGradient id="Gradient600003498c40" gradientUnits="userSpaceOnUse" x1="57.272" y1="82.0" x2="57.272" y2="72.497">
					<stop offset="0%" stop-color="rgb(47.95%, 47.95%, 47.95%)" />
					<stop offset="100%" stop-color="rgb(33.56%, 33.56%, 33.56%)" />
				</linearGradient>
			</defs>
			<path d="M 100.265 77.997 C 99.263 80.209 97.062 81.874 94.609 81.997 C 67.942 81.997 41.275 82.004 14.609 81.997 C 9.066 81.995 13.995 73.822 14.544 72.497 L 102.544 72.497 L 100.265 77.997 Z" fill="url(#Gradient600003498c40)" stroke="none" />
			<defs>
				<linearGradient id="Gradient6000034a2060" gradientUnits="userSpaceOnUse" x1="30.207" y1="80.0" x2="30.207" y2="74.0">
					<stop offset="0%" stop-color="rgb(73.8%, 84.65%, 100%)" />
					<stop offset="100%" stop-color="rgb(38.64%, 40.5%, 66.49%)" />
				</linearGradient>
			</defs>
			<rect x="24.207" y="74.0" width="12.0" height="6.0" rx="2.0" ry="2.0" fill="url(#Gradient6000034a2060)" stroke="none" transform="translate(30.207, 77.0) skewX(-22.5) translate(-30.207, -77.0)" />
			<rect x="24.207" y="74.0" width="12.0" height="6.0" rx="2.0" ry="2.0" stroke="rgb(0%, 0%, 0%)" stroke-opacity="0.5" stroke-width="1.0" stroke-linecap="square" stroke-linejoin="miter" fill="none" transform="translate(30.207, 77.0) skewX(-22.5) translate(-30.207, -77.0)" />
		</g>

		<g>
			<title>Shadow Effect</title>
		</g>

	</g>

</svg>
